<?xml version="1.0" standalone="no"?><!DOCTYPE svg PUBLIC "-//W3C//DTD SVG 1.1//EN" "http://www.w3.org/Graphics/SVG/1.1/DTD/svg11.dtd"><svg class="icon" width="26px" height="24.25px" viewBox="0 0 1098 1024" version="1.1" xmlns="http://www.w3.org/2000/svg"><path fill="#949494" d="M183.65 850.571l0-735.951c0-6.814 0-10.221 3.406-17.035 0-3.405 0-6.814 3.406-6.814 10.22-17.035 23.849-27.258 40.887-27.258l3.405 0c3.405 0 6.814 0 13.629 3.406 3.405 0 6.814 3.406 10.22 3.406l538.335 344.125 0-275.982c0-40.88600001 30.663-78.366 68.143-78.367s68.14300001 34.073 68.143 78.367l0 691.658c0 40.88600001-30.663 78.366-68.143 78.367s-68.14300001-34.073-68.143-78.367l0-275.982-538.335 347.533c-3.405 0-6.814 3.406-10.22000001 3.406s-6.814 3.406-13.62899999 3.406l-3.405 0c-17.03599999 0-34.073-10.22-40.88699999-27.258 0-3.405 0-3.405-3.40600001-6.814l0-3.405c-3.406-6.814-3.406-10.22-3.406-17.035 3.406-3.406 0-3.405 0-3.405zM285.867 213.42299999l0 541.743 419.085-269.16799999-419.085-272.57500001z" /></svg>